<svg width="40" height="40" viewBox="0 0 40 40" fill="none" xmlns="http://www.w3.org/2000/svg">
<path d="M6.87571 1L4.86429 3.0091L7.85714 6.00132L9.86572 3.99222L6.87429 1H6.87571ZM33.1257 1L30.1329 3.99222L32.1429 6.00132L35.1343 3.01053L33.1257 1ZM20 1.89166C19.5286 1.89738 19.0514 1.92453 18.5714 1.98312C18.5571 1.98312 18.5429 1.98026 18.5286 1.98312C12.7343 2.64758 8.12286 7.33024 7.32143 13.1003C6.68143 17.7444 8.59571 21.9555 11.7857 24.6677C13.0906 25.7816 13.9732 27.3102 14.2857 28.9974V36.5711C14.2857 37.1233 14.7334 37.5711 15.2857 37.5711H17.5429C18.04 38.4241 18.9471 39 20 39C21.0529 39 21.96 38.4241 22.4571 37.5711H24.7143C25.2666 37.5711 25.7143 37.1233 25.7143 36.5711V31.8553V30.1577C25.7143 28.0628 26.9371 25.9509 28.7057 24.309C31.0714 21.9398 32.8571 18.5746 32.8571 14.7093C32.8571 7.65032 27.0486 1.82593 20 1.89166ZM20 4.74956C25.5214 4.6724 30 9.19358 30 14.7093C30 17.7015 28.6143 20.3365 26.6957 22.2542L26.7414 22.2999C24.8348 24.0585 23.602 26.4278 23.2557 28.9988H17.0071C16.6929 26.5496 15.6429 24.179 13.6586 22.4785C11.1343 20.3351 9.63 17.1057 10.1329 13.459C10.7571 8.95781 14.4086 5.33828 18.8829 4.84244C19.2523 4.79092 19.6243 4.76039 19.9971 4.75099L20 4.74956ZM0 14.7093V17.5672H4.28571V14.7093H0ZM35.7143 14.7093V17.5672H40V14.7093H35.7143ZM7.85714 26.2752L4.86571 29.266L6.87571 31.2765L9.86429 28.2843L7.85714 26.2752ZM32.1429 26.2752L30.1343 28.2843L33.1243 31.2765L35.1343 29.266L32.1429 26.2752ZM17.1429 31.8567H22.8571V34.7146H17.1429V31.8567Z" fill="white"/>
</svg>
