<svg width="44" height="44" viewBox="0 0 44 44" fill="none" xmlns="http://www.w3.org/2000/svg">
<path d="M20.1479 3.26598C20.7879 1.57801 23.2098 1.57801 23.8518 3.26598L27.9918 14.7338C28.1362 15.1074 28.3905 15.4284 28.7212 15.6544C29.0518 15.8804 29.4432 16.0008 29.8437 15.9998H40.0176C41.8976 15.9998 42.7175 18.3398 41.2396 19.4857L33.9997 25.9996C33.6754 26.2489 33.4384 26.5946 33.3227 26.9869C33.207 27.3793 33.2185 27.7982 33.3557 28.1836L35.9996 39.3894C36.6436 41.1894 34.5597 42.7354 32.9837 41.6274L23.1498 35.3875C22.8131 35.1508 22.4115 35.0238 21.9999 35.0238C21.5882 35.0238 21.1866 35.1508 20.8499 35.3875L11.016 41.6274C9.44204 42.7354 7.35607 41.1874 8.00006 39.3894L10.644 28.1836C10.7812 27.7982 10.7927 27.3793 10.677 26.9869C10.5613 26.5946 10.3243 26.2489 10 25.9996L2.76014 19.4857C1.28016 18.3398 2.10415 15.9998 3.98012 15.9998H14.154C14.5545 16.0011 14.9461 15.8808 15.2768 15.6547C15.6075 15.4287 15.8618 15.1075 16.0059 14.7338L20.1459 3.26598H20.1479Z" stroke="white" stroke-width="3" stroke-linecap="round" stroke-linejoin="round"/>
</svg>
