<svg width="40" height="40" viewBox="0 0 40 40" fill="none" xmlns="http://www.w3.org/2000/svg">
<path d="M10 39C8.61111 39 7.43056 38.5181 6.45833 37.5543C5.48611 36.5906 5 35.4203 5 34.0435C5 32.6667 5.48611 31.4964 6.45833 30.5326C7.43056 29.5688 8.61111 29.087 10 29.087C10.3889 29.087 10.75 29.1283 11.0833 29.2109C11.4167 29.2935 11.7361 29.4036 12.0417 29.5413L14.4167 26.6087C13.6389 25.7551 13.0972 24.7913 12.7917 23.7174C12.4861 22.6435 12.4167 21.5696 12.5833 20.4957L9.20833 19.3804C8.73611 20.0688 8.13889 20.6196 7.41667 21.0326C6.69444 21.4457 5.88889 21.6522 5 21.6522C3.61111 21.6522 2.43056 21.1703 1.45833 20.2065C0.486111 19.2428 0 18.0725 0 16.6957C0 15.3188 0.486111 14.1486 1.45833 13.1848C2.43056 12.221 3.61111 11.7391 5 11.7391C6.38889 11.7391 7.56944 12.221 8.54167 13.1848C9.51389 14.1486 10 15.3188 10 16.6957V17.0261L13.375 18.1826C13.9306 17.1913 14.6739 16.3514 15.605 15.663C16.535 14.9746 17.5833 14.5341 18.75 14.3413V10.7478C17.6667 10.4449 16.7706 9.85951 16.0617 8.99156C15.3539 8.12472 15 7.11304 15 5.95652C15 4.57971 15.4861 3.40942 16.4583 2.44565C17.4306 1.48188 18.6111 1 20 1C21.3889 1 22.5694 1.48188 23.5417 2.44565C24.5139 3.40942 25 4.57971 25 5.95652C25 7.11304 24.6389 8.12472 23.9167 8.99156C23.1944 9.85951 22.3056 10.4449 21.25 10.7478V14.3413C22.4167 14.5341 23.4656 14.9746 24.3967 15.663C25.3267 16.3514 26.0694 17.1913 26.625 18.1826L30 17.0261V16.6957C30 15.3188 30.4861 14.1486 31.4583 13.1848C32.4306 12.221 33.6111 11.7391 35 11.7391C36.3889 11.7391 37.5694 12.221 38.5417 13.1848C39.5139 14.1486 40 15.3188 40 16.6957C40 18.0725 39.5139 19.2428 38.5417 20.2065C37.5694 21.1703 36.3889 21.6522 35 21.6522C34.1111 21.6522 33.2989 21.4457 32.5633 21.0326C31.8267 20.6196 31.2361 20.0688 30.7917 19.3804L27.4167 20.4957C27.5833 21.5696 27.5139 22.6363 27.2083 23.6959C26.9028 24.7566 26.3611 25.7275 25.5833 26.6087L27.9583 29.5C28.2639 29.3623 28.5833 29.2588 28.9167 29.1894C29.25 29.1211 29.6111 29.087 30 29.087C31.3889 29.087 32.5694 29.5688 33.5417 30.5326C34.5139 31.4964 35 32.6667 35 34.0435C35 35.4203 34.5139 36.5906 33.5417 37.5543C32.5694 38.5181 31.3889 39 30 39C28.6111 39 27.4306 38.5181 26.4583 37.5543C25.4861 36.5906 25 35.4203 25 34.0435C25 33.4928 25.0906 32.963 25.2717 32.4541C25.4517 31.9441 25.6944 31.4826 26 31.0696L23.625 28.137C22.4861 28.7703 21.2711 29.087 19.98 29.087C18.6878 29.087 17.4722 28.7703 16.3333 28.137L14 31.0696C14.3056 31.4826 14.5489 31.9441 14.73 32.4541C14.91 32.963 15 33.4928 15 34.0435C15 35.4203 14.5139 36.5906 13.5417 37.5543C12.5694 38.5181 11.3889 39 10 39ZM5 18.3478C5.47222 18.3478 5.86833 18.1892 6.18833 17.872C6.50722 17.5559 6.66667 17.1638 6.66667 16.6957C6.66667 16.2275 6.50722 15.8349 6.18833 15.5177C5.86833 15.2015 5.47222 15.0435 5 15.0435C4.52778 15.0435 4.13222 15.2015 3.81333 15.5177C3.49333 15.8349 3.33333 16.2275 3.33333 16.6957C3.33333 17.1638 3.49333 17.5559 3.81333 17.872C4.13222 18.1892 4.52778 18.3478 5 18.3478ZM10 35.6957C10.4722 35.6957 10.8683 35.537 11.1883 35.2198C11.5072 34.9037 11.6667 34.5116 11.6667 34.0435C11.6667 33.5754 11.5072 33.1832 11.1883 32.8671C10.8683 32.5499 10.4722 32.3913 10 32.3913C9.52778 32.3913 9.13167 32.5499 8.81167 32.8671C8.49278 33.1832 8.33333 33.5754 8.33333 34.0435C8.33333 34.5116 8.49278 34.9037 8.81167 35.2198C9.13167 35.537 9.52778 35.6957 10 35.6957ZM20 7.6087C20.4722 7.6087 20.8683 7.45009 21.1883 7.13287C21.5072 6.81675 21.6667 6.42464 21.6667 5.95652C21.6667 5.48841 21.5072 5.09574 21.1883 4.77852C20.8683 4.46241 20.4722 4.30435 20 4.30435C19.5278 4.30435 19.1322 4.46241 18.8133 4.77852C18.4933 5.09574 18.3333 5.48841 18.3333 5.95652C18.3333 6.42464 18.4933 6.81675 18.8133 7.13287C19.1322 7.45009 19.5278 7.6087 20 7.6087ZM20 25.7826C21.1667 25.7826 22.1528 25.3833 22.9583 24.5848C23.7639 23.7862 24.1667 22.8087 24.1667 21.6522C24.1667 20.4957 23.7639 19.5181 22.9583 18.7196C22.1528 17.921 21.1667 17.5217 20 17.5217C18.8333 17.5217 17.8472 17.921 17.0417 18.7196C16.2361 19.5181 15.8333 20.4957 15.8333 21.6522C15.8333 22.8087 16.2361 23.7862 17.0417 24.5848C17.8472 25.3833 18.8333 25.7826 20 25.7826ZM30 35.6957C30.4722 35.6957 30.8678 35.537 31.1867 35.2198C31.5067 34.9037 31.6667 34.5116 31.6667 34.0435C31.6667 33.5754 31.5067 33.1832 31.1867 32.8671C30.8678 32.5499 30.4722 32.3913 30 32.3913C29.5278 32.3913 29.1322 32.5499 28.8133 32.8671C28.4933 33.1832 28.3333 33.5754 28.3333 34.0435C28.3333 34.5116 28.4933 34.9037 28.8133 35.2198C29.1322 35.537 29.5278 35.6957 30 35.6957ZM35 18.3478C35.4722 18.3478 35.8678 18.1892 36.1867 17.872C36.5067 17.5559 36.6667 17.1638 36.6667 16.6957C36.6667 16.2275 36.5067 15.8349 36.1867 15.5177C35.8678 15.2015 35.4722 15.0435 35 15.0435C34.5278 15.0435 34.1322 15.2015 33.8133 15.5177C33.4933 15.8349 33.3333 16.2275 33.3333 16.6957C33.3333 17.1638 33.4933 17.5559 33.8133 17.872C34.1322 18.1892 34.5278 18.3478 35 18.3478Z" fill="white"/>
</svg>
